# This file uses centimeters as units for non-parametric coordinates.

mtllib cue.mtl
g default
v 75.255915 0.500003 0.000000
v 75.255915 0.250003 -0.433013
v 75.255915 -0.249997 -0.433013
v 75.255915 -0.499997 0.000000
v 75.255915 -0.249997 0.433013
v 75.255915 0.250003 0.433013
v 18.551431 0.822257 -0.423991
v 18.551431 0.043943 -0.924088
v 18.551431 -0.778310 -0.500097
v 18.551431 -0.822250 0.423991
v 18.551431 -0.043937 0.924088
v 18.551431 0.778317 0.500097
v 15.255915 1.100003 0.000000
v 15.255915 0.550003 -0.952628
v 15.255915 -0.549997 -0.952628
v 15.255915 -1.099997 0.000000
v 15.255915 -0.549997 0.952628
v 15.255915 0.550003 0.952628
v -41.154668 1.289959 -0.648047
v -41.154668 0.083756 -1.441158
v -41.154663 -1.206200 -0.793111
v -41.154668 -1.289952 0.648047
v -41.154668 -0.083750 1.441158
v -41.154663 1.206206 0.793111
v -44.744086 1.700003 0.000000
v -44.744086 0.850003 -1.472243
v -44.744086 -0.849997 -1.472243
v -44.744086 -1.699997 0.000000
v -44.744086 -0.849997 1.472243
v -44.744086 0.850003 1.472243
v -74.744086 2.000003 0.000000
v -74.744086 1.000003 -1.732051
v -74.744086 -0.999997 -1.732051
v -74.744086 -1.999997 0.000000
v -74.744086 -0.999997 1.732051
v -74.744086 1.000003 1.732051
v -75.401178 1.358451 0.000000
v -75.401178 0.679227 -1.176451
v -75.401178 -0.679221 -1.176451
v -75.401178 -1.358445 0.000000
v -75.401178 -0.679221 1.176451
v -75.401178 0.679227 1.176451
v 75.401178 0.162939 -0.282213
v 75.401178 0.325874 -0.000000
v 75.401178 0.162939 0.282213
v 75.401178 -0.162932 0.282213
v 75.401178 -0.325868 0.000000
v 75.401178 -0.162932 -0.282213
vt 0.095011 0.725289
vt 0.097141 0.725289
vt 0.098206 0.728562
vt 0.097141 0.731836
vt 0.095011 0.731836
vt 0.093946 0.728562
vt 0.013731 0.436070
vt 0.013731 0.640745
vt 0.013731 0.229219
vt 0.013731 0.209997
vt 0.013731 0.801827
vt 0.013731 0.779632
vt 0.013731 0.416849
vt 0.013731 0.618550
vt 0.206072 0.209997
vt 0.206072 0.240751
vt 0.206072 0.772974
vt 0.206072 0.808485
vt 0.206072 0.405316
vt 0.206072 0.611892
vt 0.013731 0.190776
vt 0.206072 0.179243
vt 0.398414 0.766315
vt 0.398414 0.815144
vt 0.206072 0.436070
vt 0.206072 0.647403
vt 0.398414 0.209997
vt 0.398414 0.252284
vt 0.590756 0.759657
vt 0.590756 0.821802
vt 0.063067 0.737941
vt 0.050769 0.730084
vt 0.051364 0.728795
vt 0.063488 0.720128
vt 0.063644 0.730777
vt 0.054646 0.721953
vt 0.094442 0.733585
vt 0.398414 0.605233
vt 0.398414 0.654062
vt 0.590756 0.598575
vt 0.590756 0.660720
vt 0.783098 0.591916
vt 0.062999 0.727290
vt 0.071691 0.729665
vt 0.055409 0.736664
vt 0.072280 0.727827
vt 0.069616 0.736006
vt 0.068857 0.721668
vt 0.092808 0.728562
vt 0.094442 0.723539
vt 0.097710 0.723539
vt 0.099344 0.728562
vt 0.097710 0.733585
vt 0.013731 0.455291
vt 0.206072 0.466824
vt 0.398414 0.393783
vt 0.398414 0.436070
vt 0.398414 0.478357
vt 0.590756 0.382251
vt 0.590756 0.436070
vt 0.590756 0.489890
vt 0.783098 0.370718
vt 0.783098 0.436070
vt 0.783098 0.501422
vt 0.975440 0.359185
vt 0.975440 0.436070
vt 0.975440 0.512955
vt 0.398414 0.167711
vt 0.590756 0.209997
vt 0.590756 0.263817
vt 0.590756 0.156178
vt 0.783098 0.209997
vt 0.783098 0.275350
vt 0.783098 0.144645
vt 0.975440 0.209997
vt 0.975440 0.286882
vt 0.975440 0.133112
vt 0.783098 0.667379
vt 0.975440 0.585258
vt 0.975440 0.674037
vt 0.979652 0.599497
vt 0.979652 0.659798
vt 0.783098 0.752998
vt 0.783098 0.828461
vt 0.975440 0.746340
vt 0.975440 0.835119
vt 0.979652 0.760579
vt 0.979652 0.820880
vt 0.052974 0.730207
vt 0.057413 0.716561
vt 0.066290 0.716561
vt 0.070729 0.730207
vt 0.066290 0.743853
vt 0.057413 0.743853
vn 0.383841 0.923399 0.000001
vn 0.383841 0.461700 -0.799687
vn 0.009999 0.499975 -0.865982
vn 0.009999 0.499975 -0.865982
vn 0.009999 0.999950 -0.000000
vn 0.383841 0.923399 0.000001
vn 0.383841 0.461700 -0.799687
vn 0.383841 -0.461699 -0.799687
vn 0.010000 -0.499975 -0.865982
vn 0.010000 -0.499975 -0.865982
vn 0.009999 0.499975 -0.865982
vn 0.383841 0.461700 -0.799687
vn 0.383841 -0.461699 -0.799687
vn 0.383841 -0.923399 -0.000000
vn 0.010000 -0.999950 0.000001
vn 0.010000 -0.999950 0.000001
vn 0.010000 -0.499975 -0.865982
vn 0.383841 -0.461699 -0.799687
vn 0.383841 -0.923399 -0.000000
vn 0.383841 -0.461700 0.799687
vn 0.009999 -0.499975 0.865982
vn 0.009999 -0.499975 0.865982
vn 0.010000 -0.999950 0.000001
vn 0.383841 -0.923399 -0.000000
vn 0.383841 -0.461700 0.799687
vn 0.383841 0.461699 0.799688
vn 0.010000 0.499975 0.865982
vn 0.010000 0.499975 0.865982
vn 0.009999 -0.499975 0.865982
vn 0.383841 -0.461700 0.799687
vn 0.383841 0.461699 0.799688
vn 0.383841 0.923399 0.000001
vn 0.009999 0.999950 -0.000000
vn 0.009999 0.999950 -0.000000
vn 0.010000 0.499975 0.865982
vn 0.383841 0.461699 0.799688
vn 0.009999 0.999950 -0.000000
vn 0.009999 0.499975 -0.865982
vn 0.009999 0.499975 -0.865982
vn 0.009999 0.499975 -0.865982
vn 0.009999 0.999950 -0.000000
vn 0.009999 0.999950 -0.000000
vn 0.009999 0.499975 -0.865982
vn 0.010000 -0.499975 -0.865982
vn 0.009999 -0.499975 -0.865982
vn 0.009999 -0.499975 -0.865982
vn 0.009999 0.499975 -0.865982
vn 0.009999 0.499975 -0.865982
vn 0.010000 -0.499975 -0.865982
vn 0.010000 -0.999950 0.000001
vn 0.009999 -0.999950 0.000000
vn 0.009999 -0.999950 0.000000
vn 0.009999 -0.499975 -0.865982
vn 0.010000 -0.499975 -0.865982
vn 0.010000 -0.999950 0.000001
vn 0.009999 -0.499975 0.865982
vn 0.009999 -0.499975 0.865982
vn 0.009999 -0.499975 0.865982
vn 0.009999 -0.999950 0.000000
vn 0.010000 -0.999950 0.000001
vn 0.009999 -0.499975 0.865982
vn 0.010000 0.499975 0.865982
vn 0.009999 0.499975 0.865982
vn 0.009999 0.499975 0.865982
vn 0.009999 -0.499975 0.865982
vn 0.009999 -0.499975 0.865982
vn 0.010000 0.499975 0.865982
vn 0.009999 0.999950 -0.000000
vn 0.009999 0.999950 -0.000000
vn 0.009999 0.999950 -0.000000
vn 0.009999 0.499975 0.865982
vn 0.010000 0.499975 0.865982
vn 0.009999 0.999950 -0.000000
vn 0.009999 0.499975 -0.865982
vn 0.010000 0.499975 -0.865982
vn 0.010000 0.499975 -0.865982
vn 0.009999 0.999950 -0.000000
vn 0.009999 0.999950 -0.000000
vn 0.009999 0.499975 -0.865982
vn 0.009999 -0.499975 -0.865982
vn 0.009999 -0.499975 -0.865982
vn 0.009999 -0.499975 -0.865982
vn 0.010000 0.499975 -0.865982
vn 0.009999 0.499975 -0.865982
vn 0.009999 -0.499975 -0.865982
vn 0.009999 -0.999950 0.000000
vn 0.009999 -0.999950 0.000000
vn 0.009999 -0.999950 0.000000
vn 0.009999 -0.499975 -0.865982
vn 0.009999 -0.499975 -0.865982
vn 0.009999 -0.999950 0.000000
vn 0.009999 -0.499975 0.865982
vn 0.009999 -0.499975 0.865982
vn 0.009999 -0.499975 0.865982
vn 0.009999 -0.999950 0.000000
vn 0.009999 -0.999950 0.000000
vn 0.009999 -0.499975 0.865982
vn 0.009999 0.499975 0.865982
vn 0.009999 0.499975 0.865982
vn 0.009999 0.499975 0.865982
vn 0.009999 -0.499975 0.865982
vn 0.009999 -0.499975 0.865982
vn 0.009999 0.499975 0.865982
vn 0.009999 0.999950 -0.000000
vn 0.009999 0.999950 -0.000000
vn 0.009999 0.999950 -0.000000
vn 0.009999 0.499975 0.865982
vn 0.009999 0.499975 0.865982
vn 0.009999 0.999950 -0.000000
vn 0.010000 0.499975 -0.865982
vn 0.010000 0.499975 -0.865982
vn 0.010000 0.499975 -0.865982
vn 0.010000 0.999950 0.000000
vn 0.009999 0.999950 -0.000000
vn 0.010000 0.499975 -0.865982
vn 0.009999 -0.499975 -0.865982
vn 0.010000 -0.499975 -0.865982
vn 0.010000 -0.499975 -0.865982
vn 0.010000 0.499975 -0.865982
vn 0.010000 0.499975 -0.865982
vn 0.009999 -0.499975 -0.865982
vn 0.009999 -0.999950 0.000000
vn 0.010000 -0.999950 -0.000000
vn 0.010000 -0.999950 -0.000000
vn 0.010000 -0.499975 -0.865982
vn 0.009999 -0.499975 -0.865982
vn 0.009999 -0.999950 0.000000
vn 0.009999 -0.499975 0.865982
vn 0.009999 -0.499975 0.865982
vn 0.009999 -0.499975 0.865982
vn 0.010000 -0.999950 -0.000000
vn 0.009999 -0.999950 0.000000
vn 0.009999 -0.499975 0.865982
vn 0.009999 0.499975 0.865982
vn 0.010000 0.499975 0.865982
vn 0.010000 0.499975 0.865982
vn 0.009999 -0.499975 0.865982
vn 0.009999 -0.499975 0.865982
vn 0.009999 0.499975 0.865982
vn 0.009999 0.999950 -0.000000
vn 0.010000 0.999950 0.000000
vn 0.010000 0.999950 0.000000
vn 0.010000 0.499975 0.865982
vn 0.009999 0.499975 0.865982
vn 0.010000 0.999950 0.000000
vn 0.010000 0.499975 -0.865982
vn -0.336056 0.470921 -0.815659
vn -0.336056 0.470921 -0.815659
vn -0.336056 0.941842 -0.000000
vn 0.010000 0.999950 0.000000
vn 0.010000 0.499975 -0.865982
vn 0.010000 -0.499975 -0.865982
vn -0.336056 -0.470921 -0.815659
vn -0.336056 -0.470921 -0.815659
vn -0.336056 0.470921 -0.815659
vn 0.010000 0.499975 -0.865982
vn 0.010000 -0.499975 -0.865982
vn 0.010000 -0.999950 -0.000000
vn -0.336056 -0.941842 0.000000
vn -0.336056 -0.941842 0.000000
vn -0.336056 -0.470921 -0.815659
vn 0.010000 -0.499975 -0.865982
vn 0.010000 -0.999950 -0.000000
vn 0.009999 -0.499975 0.865982
vn -0.336056 -0.470921 0.815659
vn -0.336056 -0.470921 0.815659
vn -0.336056 -0.941842 0.000000
vn 0.010000 -0.999950 -0.000000
vn 0.009999 -0.499975 0.865982
vn 0.010000 0.499975 0.865982
vn -0.336056 0.470921 0.815659
vn -0.336056 0.470921 0.815659
vn -0.336056 -0.470921 0.815659
vn 0.009999 -0.499975 0.865982
vn 0.010000 0.499975 0.865982
vn 0.010000 0.999950 0.000000
vn -0.336056 0.941842 -0.000000
vn -0.336056 0.941842 -0.000000
vn -0.336056 0.470921 0.815659
vn 0.010000 0.499975 0.865982
vn 0.901722 -0.216158 0.374398
vn 0.901722 -0.432317 0.000000
vn 0.901722 -0.216159 -0.374398
vn 0.901722 -0.216159 -0.374398
vn 0.901722 0.216158 -0.374398
vn 0.901722 0.432317 0.000000
vn 0.901722 -0.216158 0.374398
vn 0.901722 -0.216159 -0.374398
vn 0.901722 0.432317 0.000000
vn 0.901722 0.216158 0.374397
vn 0.901722 -0.216158 0.374398
vn 0.901722 0.432317 0.000000
vn -0.873910 0.243044 -0.420965
vn -0.873910 -0.243044 -0.420965
vn -0.873910 -0.486089 0.000000
vn -0.873910 -0.486089 0.000000
vn -0.873910 -0.243044 0.420965
vn -0.873910 0.243044 0.420965
vn -0.873910 0.243044 -0.420965
vn -0.873910 -0.486089 0.000000
vn -0.873910 0.243044 0.420965
vn -0.873910 0.486089 0.000000
vn -0.873910 0.243044 -0.420965
vn -0.873910 0.243044 0.420965
vn -0.336056 0.941842 -0.000000
vn -0.336056 0.470921 -0.815659
vn -0.873910 0.243044 -0.420965
vn -0.873910 0.243044 -0.420965
vn -0.873910 0.486089 0.000000
vn -0.336056 0.941842 -0.000000
vn -0.336056 0.470921 -0.815659
vn -0.336056 -0.470921 -0.815659
vn -0.873910 -0.243044 -0.420965
vn -0.873910 -0.243044 -0.420965
vn -0.873910 0.243044 -0.420965
vn -0.336056 0.470921 -0.815659
vn -0.336056 -0.470921 -0.815659
vn -0.336056 -0.941842 0.000000
vn -0.873910 -0.486089 0.000000
vn -0.873910 -0.486089 0.000000
vn -0.873910 -0.243044 -0.420965
vn -0.336056 -0.470921 -0.815659
vn -0.336056 -0.941842 0.000000
vn -0.336056 -0.470921 0.815659
vn -0.873910 -0.243044 0.420965
vn -0.873910 -0.243044 0.420965
vn -0.873910 -0.486089 0.000000
vn -0.336056 -0.941842 0.000000
vn -0.336056 -0.470921 0.815659
vn -0.336056 0.470921 0.815659
vn -0.873910 0.243044 0.420965
vn -0.873910 0.243044 0.420965
vn -0.873910 -0.243044 0.420965
vn -0.336056 -0.470921 0.815659
vn -0.336056 0.470921 0.815659
vn -0.336056 0.941842 -0.000000
vn -0.873910 0.486089 0.000000
vn -0.873910 0.486089 0.000000
vn -0.873910 0.243044 0.420965
vn -0.336056 0.470921 0.815659
vn 0.383841 0.461700 -0.799687
vn 0.383841 0.923399 0.000001
vn 0.901722 0.432317 0.000000
vn 0.901722 0.432317 0.000000
vn 0.901722 0.216158 -0.374398
vn 0.383841 0.461700 -0.799687
vn 0.383841 0.923399 0.000001
vn 0.383841 0.461699 0.799688
vn 0.901722 0.216158 0.374397
vn 0.901722 0.216158 0.374397
vn 0.901722 0.432317 0.000000
vn 0.383841 0.923399 0.000001
vn 0.383841 0.461699 0.799688
vn 0.383841 -0.461700 0.799687
vn 0.901722 -0.216158 0.374398
vn 0.901722 -0.216158 0.374398
vn 0.901722 0.216158 0.374397
vn 0.383841 0.461699 0.799688
vn 0.383841 -0.461700 0.799687
vn 0.383841 -0.923399 -0.000000
vn 0.901722 -0.432317 0.000000
vn 0.901722 -0.432317 0.000000
vn 0.901722 -0.216158 0.374398
vn 0.383841 -0.461700 0.799687
vn 0.383841 -0.923399 -0.000000
vn 0.383841 -0.461699 -0.799687
vn 0.901722 -0.216159 -0.374398
vn 0.901722 -0.216159 -0.374398
vn 0.901722 -0.432317 0.000000
vn 0.383841 -0.923399 -0.000000
vn 0.383841 -0.461699 -0.799687
vn 0.383841 0.461700 -0.799687
vn 0.901722 0.216158 -0.374398
vn 0.901722 0.216158 -0.374398
vn 0.901722 -0.216159 -0.374398
vn 0.383841 -0.461699 -0.799687
s off
g Cone001
usemtl blinn3SG
f 1/7/1 2/13/2 8/19/3
f 8/19/4 7/25/5 1/7/6
f 2/8/7 3/14/8 9/20/9
f 9/20/10 8/26/11 2/8/12
f 3/9/13 4/10/14 10/15/15
f 10/15/16 9/16/17 3/9/18
f 4/10/19 5/21/20 11/22/21
f 11/22/22 10/15/23 4/10/24
f 5/11/25 6/12/26 12/17/27
f 12/17/28 11/18/29 5/11/30
f 6/54/31 1/7/32 7/25/33
f 7/25/34 12/55/35 6/54/36
usemtl blinn2SG
f 7/25/37 8/19/38 14/56/39
f 14/56/40 13/57/41 7/25/42
f 8/26/43 9/20/44 15/38/45
f 15/38/46 14/39/47 8/26/48
f 9/16/49 10/15/50 16/27/51
f 16/27/52 15/28/53 9/16/54
f 10/15/55 11/22/56 17/68/57
f 17/68/58 16/27/59 10/15/60
f 11/18/61 12/17/62 18/23/63
f 18/23/64 17/24/65 11/18/66
f 12/55/67 7/25/68 13/57/69
f 13/57/70 18/58/71 12/55/72
usemtl blinn1SG
f 13/57/73 14/56/74 20/59/75
f 20/59/76 19/60/77 13/57/78
f 14/39/79 15/38/80 21/40/81
f 21/40/82 20/41/83 14/39/84
f 15/28/85 16/27/86 22/69/87
f 22/69/88 21/70/89 15/28/90
f 16/27/91 17/68/92 23/71/93
f 23/71/94 22/69/95 16/27/96
f 17/24/97 18/23/98 24/29/99
f 24/29/100 23/30/101 17/24/102
f 18/58/103 13/57/104 19/60/105
f 19/60/106 24/61/107 18/58/108
usemtl blinn2SG
f 19/60/109 20/59/110 26/62/111
f 26/62/112 25/63/113 19/60/114
f 20/41/115 21/40/116 27/42/117
f 27/42/118 26/78/119 20/41/120
f 21/70/121 22/69/122 28/72/123
f 28/72/124 27/73/125 21/70/126
f 22/69/127 23/71/128 29/74/129
f 29/74/130 28/72/131 22/69/132
f 23/30/133 24/29/134 30/83/135
f 30/83/136 29/84/137 23/30/138
f 24/61/139 19/60/140 25/63/141
f 25/63/142 30/64/143 24/61/144
usemtl blinn1SG
f 25/63/145 26/62/146 32/65/147
f 32/65/148 31/66/149 25/63/150
f 26/78/151 27/42/152 33/79/153
f 33/79/154 32/80/155 26/78/156
f 27/73/157 28/72/158 34/75/159
f 34/75/160 33/76/161 27/73/162
f 28/72/163 29/74/164 35/77/165
f 35/77/166 34/75/167 28/72/168
f 29/84/169 30/83/170 36/85/171
f 36/85/172 35/86/173 29/84/174
f 30/64/175 25/63/176 31/66/177
f 31/66/178 36/67/179 30/64/180
usemtl blinn4SG
f 46/2/181 47/3/182 48/4/183
f 48/4/184 43/5/185 44/6/186
f 46/2/187 48/4/188 44/6/189
f 45/1/190 46/2/191 44/6/192
usemtl blinn2SG
f 38/90/193 39/91/194 40/92/195
f 40/92/196 41/93/197 42/94/198
f 38/90/199 40/92/200 42/94/201
f 37/89/202 38/90/203 42/94/204
f 31/31/205 32/32/206 38/36/207
f 38/36/208 37/43/209 31/31/210
f 32/80/211 33/79/212 39/81/213
f 39/81/214 38/82/215 32/80/216
f 33/33/217 34/34/218 40/35/219
f 40/35/220 39/45/221 33/33/222
f 34/34/223 35/46/224 41/47/225
f 41/47/226 40/35/227 34/34/228
f 35/86/229 36/85/230 42/87/231
f 42/87/232 41/88/233 35/86/234
f 36/44/235 31/31/236 37/43/237
f 37/43/238 42/48/239 36/44/240
usemtl blinn4SG
f 2/37/241 1/49/242 44/6/243
f 44/6/244 43/5/245 2/37/246
f 1/49/247 6/50/248 45/1/249
f 45/1/250 44/6/251 1/49/252
f 6/50/253 5/51/254 46/2/255
f 46/2/256 45/1/257 6/50/258
f 5/51/259 4/52/260 47/3/261
f 47/3/262 46/2/263 5/51/264
f 4/52/265 3/53/266 48/4/267
f 48/4/268 47/3/269 4/52/270
f 3/53/271 2/37/272 43/5/273
f 43/5/274 48/4/275 3/53/276
